<svg xmlns="http://www.w3.org/2000/svg" width="400" height="300" viewBox="0 0 400 300">
  <defs>
    <radialGradient id="sun" cx="50%" cy="50%" r="50%">
      <stop offset="0%" stop-color="#ff6b6b"/>
      <stop offset="100%" stop-color="#ee5a24"/>
    </radialGradient>
  </defs>
  <rect width="400" height="300" fill="#2d3436"/>
  <circle cx="200" cy="120" r="45" fill="url(#sun)"/>
  <path d="M0 180 C50 160 100 200 150 180 S250 160 300 180 S380 200 400 175 L400 300 L0 300 Z" fill="#0984e3" opacity="0.8"/>
  <path d="M0 210 C60 190 120 230 180 210 S280 190 340 210 S400 230 400 205 L400 300 L0 300 Z" fill="#74b9ff" opacity="0.6"/>
  <path d="M0 240 C40 220 80 260 140 240 S220 220 280 240 S360 260 400 235 L400 300 L0 300 Z" fill="#dfe6e9" opacity="0.4"/>
</svg>
